<?xml version="1.0" standalone="no"?><svg xmlns="http://www.w3.org/2000/svg" viewBox="0 0 1440 320"><path fill="#ffffff" fill-opacity="1" d="M0,96L40,106.7C80,117,160,139,240,133.3C320,128,400,96,480,106.7C560,117,640,171,720,160C800,149,880,75,960,42.7C1040,11,1120,21,1200,42.7C1280,64,1360,96,1400,112L1440,128L1440,320L1400,320C1360,320,1280,320,1200,320C1120,320,1040,320,960,320C880,320,800,320,720,320C640,320,560,320,480,320C400,320,320,320,240,320C160,320,80,320,40,320L0,320Z"></path></svg>